# xmcd
#
# Track frame offsets:
#	150
#	16547
#	31782
#	51297
#	65217
#	87322
#	102012
#	118485
#	131040
#	143792
#	163135
#	179475
#	199452
#	213605
#
# Disc length: 3043 seconds
#
# Revision: 1
# Processed by: cddbd v1.4PL0 Copyright (c) Steve Scherf et al.
# Submitted via: audiograbber 1.80
#
DISCID=d40be10e
DTITLE=Hytrel Compilation - Viva Ao Sertanejo!
DYEAR=1900
DGENRE=
TTITLE0=Rio Negro and Solimões - Esperando Na Janela
TTITLE1=Chitãozinho and Chororó - Alô
TTITLE2=Roberta Miranda - A Mulher Em Mim
TTITLE3=Rio Negro and Solimões - Peão Apaixonado
TTITLE4=Chitãozinho and Chororó - Evidências
TTITLE5=Roberta Miranda - De Igual Pra Igual
TTITLE6=Rio Negro and Solimões - Casa Cheia
TTITLE7=Sérgio Reis - Coisa Boa É Mulher
TTITLE8=Chitãozinho and Chororó - Na Aba Do Meu Chapéu
TTITLE9=Rio Negro and Solimões - Frio Da Madrugada
TTITLE10=Roberta Miranda - Sol Da Minha Vida
TTITLE11=Chitãozinho and Chororó - Página Virada
TTITLE12=Sérgio Reis - Cunhada Boa
TTITLE13=Roberta Miranda - Vá Com Deus
EXTD=
EXTT0=
EXTT1=
EXTT2=
EXTT3=
EXTT4=
EXTT5=
EXTT6=
EXTT7=
EXTT8=
EXTT9=
EXTT10=
EXTT11=
EXTT12=
EXTT13=
PLAYORDER=
